<svg width="80" height="80" viewBox="0 0 80 80" fill="none" xmlns="http://www.w3.org/2000/svg">
<g clip-path="url(#clip0_172_35)">
<path d="M28.65 14.5H46.85C48.29 14.5 49.47 15.67 49.47 17.12V34.12H26.04V17.12C26.04 15.68 27.21 14.5 28.66 14.5H28.65Z" stroke="#EF7D00" stroke-width="3" stroke-miterlimit="10"/>
<path d="M34.9503 23.6H30.9503C30.4422 23.6 30.0303 24.0119 30.0303 24.52V27.17C30.0303 27.6781 30.4422 28.09 30.9503 28.09H34.9503C35.4584 28.09 35.8703 27.6781 35.8703 27.17V24.52C35.8703 24.0119 35.4584 23.6 34.9503 23.6Z" fill="#EF7D00"/>
<path d="M44.5499 23.6H40.5499C40.0418 23.6 39.6299 24.0119 39.6299 24.52V27.17C39.6299 27.6781 40.0418 28.09 40.5499 28.09H44.5499C45.058 28.09 45.4699 27.6781 45.4699 27.17V24.52C45.4699 24.0119 45.058 23.6 44.5499 23.6Z" fill="#EF7D00"/>
<path d="M50.96 34.11H24.55C22.8655 34.11 21.5 35.4755 21.5 37.16V55.08C21.5 56.7645 22.8655 58.13 24.55 58.13H50.96C52.6445 58.13 54.01 56.7645 54.01 55.08V37.16C54.01 35.4755 52.6445 34.11 50.96 34.11Z" stroke="#EF7D00" stroke-width="3" stroke-miterlimit="10"/>
<path d="M37.75 58.13V62.32C37.75 64.25 39.31 65.81 41.24 65.81H60.66" stroke="#EF7D00" stroke-width="3" stroke-miterlimit="10"/>
</g>
<defs>
<clipPath id="clip0_172_35">
<rect width="40.67" height="54.31" fill="white" transform="translate(20 13)"/>
</clipPath>
</defs>
</svg>
