<svg width="59" height="59" viewBox="0 0 59 59" fill="none" xmlns="http://www.w3.org/2000/svg">
<g clip-path="url(#clip0_105_139)">
<path d="M41.7299 12.9329H17.9499C15.4481 12.9329 13.4199 14.961 13.4199 17.4629V41.2429C13.4199 43.7447 15.4481 45.7729 17.9499 45.7729H41.7299C44.2318 45.7729 46.2599 43.7447 46.2599 41.2429V17.4629C46.2599 14.961 44.2318 12.9329 41.7299 12.9329Z" fill="#F07E00"/>
<path d="M29.8397 57.0129C45.1159 57.0129 57.4997 44.6291 57.4997 29.3529C57.4997 14.0767 45.1159 1.69287 29.8397 1.69287C14.5635 1.69287 2.17969 14.0767 2.17969 29.3529C2.17969 44.6291 14.5635 57.0129 29.8397 57.0129Z" stroke="#F07E00" stroke-width="3" stroke-miterlimit="10"/>
<path d="M29.8392 36.9929C34.0587 36.9929 37.4792 33.5723 37.4792 29.3529C37.4792 25.1334 34.0587 21.7129 29.8392 21.7129C25.6198 21.7129 22.1992 25.1334 22.1992 29.3529C22.1992 33.5723 25.6198 36.9929 29.8392 36.9929Z" fill="#F07E00" stroke="white" stroke-width="3" stroke-miterlimit="10"/>
<path d="M39.8601 22.2529C41.2353 22.2529 42.3501 21.1381 42.3501 19.7629C42.3501 18.3878 41.2353 17.2729 39.8601 17.2729C38.4849 17.2729 37.3701 18.3878 37.3701 19.7629C37.3701 21.1381 38.4849 22.2529 39.8601 22.2529Z" fill="white"/>
</g>
<defs>
<clipPath id="clip0_105_139">
<rect width="58.32" height="58.32" fill="white" transform="translate(0.679688 0.192871)"/>
</clipPath>
</defs>
</svg>
