<svg width="59" height="59" viewBox="0 0 59 59" fill="none" xmlns="http://www.w3.org/2000/svg">
<g clip-path="url(#clip0_105_144)">
<path d="M29.8397 57.0129C45.1159 57.0129 57.4997 44.6291 57.4997 29.3529C57.4997 14.0767 45.1159 1.69287 29.8397 1.69287C14.5635 1.69287 2.17969 14.0767 2.17969 29.3529C2.17969 44.6291 14.5635 57.0129 29.8397 57.0129Z" stroke="#F07E00" stroke-width="3" stroke-miterlimit="10"/>
<path d="M33.7296 22.7628V25.1128H41.4296V33.1428H33.7296V45.5528H24.9496V33.1428H18.0596V25.2228H24.9496V21.3928C24.9496 16.2928 27.1096 13.1528 33.2696 13.1528H41.6296V20.7128H35.8496C33.4596 20.6028 33.7296 21.1828 33.7296 22.7728" fill="#F07E00"/>
</g>
<defs>
<clipPath id="clip0_105_144">
<rect width="58.32" height="58.32" fill="white" transform="translate(0.679688 0.192871)"/>
</clipPath>
</defs>
</svg>
