<svg width="59" height="60" viewBox="0 0 59 60" fill="none" xmlns="http://www.w3.org/2000/svg">
<g clip-path="url(#clip0_105_147)">
<path d="M29.8397 57.5129C45.1159 57.5129 57.4997 45.1291 57.4997 29.8529C57.4997 14.5767 45.1159 2.19287 29.8397 2.19287C14.5635 2.19287 2.17969 14.5767 2.17969 29.8529C2.17969 45.1291 14.5635 57.5129 29.8397 57.5129Z" stroke="#F07E00" stroke-width="3" stroke-miterlimit="10"/>
<path d="M45.0998 20.543V26.473C43.1398 26.483 41.2098 26.023 39.4198 25.233C38.5398 24.843 37.7598 24.303 36.8898 23.883C36.6998 27.893 37.1498 32.133 36.8898 36.113C36.0798 48.703 19.4998 51.053 15.3098 39.913C12.3298 32.003 18.8698 23.873 27.1698 24.943V31.023C22.4198 29.813 18.5598 35.273 21.8498 39.153C23.9598 41.643 27.7898 41.623 29.7298 38.973C29.9298 38.703 30.6698 37.403 30.6698 37.173V12.263L30.8998 12.033H36.6698L36.8798 12.283C36.8898 16.983 40.6298 20.133 45.1098 20.543" fill="#F07E00"/>
</g>
<defs>
<clipPath id="clip0_105_147">
<rect width="58.32" height="58.32" fill="white" transform="translate(0.679688 0.692871)"/>
</clipPath>
</defs>
</svg>
