<svg width="250" height="47" viewBox="0 0 250 47" fill="none" xmlns="http://www.w3.org/2000/svg">
<path d="M77.1777 20.2089H89.1918C91.1499 20.1356 93.1022 20.4639 94.9287 21.1736C96.346 21.7815 97.5902 22.7317 98.5496 23.9392C99.5204 25.1791 100.223 26.607 100.614 28.1325C101.052 29.7881 101.268 31.4945 101.257 33.207C101.257 35.9982 100.936 38.1721 100.299 39.7156C99.7089 41.1804 98.8043 42.4977 97.6492 43.5745C96.625 44.5558 95.3747 45.2693 94.009 45.6519C92.4389 46.0983 90.8174 46.3383 89.1853 46.3658H77.1777V20.2089ZM85.2621 26.1323V40.436H87.243C88.4729 40.519 89.7057 40.3256 90.8511 39.87C91.6217 39.4312 92.2152 38.7375 92.5297 37.9084C93.0165 36.4444 93.2238 34.9019 93.1407 33.3613C93.1407 30.5872 92.6862 28.6899 91.7772 27.6694C90.8682 26.649 89.3676 26.1366 87.2752 26.1323H85.2621Z" fill="#272C5E"/>
<path d="M113.927 20.2341H105.823V46.4039H113.927V20.2341Z" fill="#272C5E"/>
<path d="M132.895 36.9311V31.4836H145.392V42.6422C143.444 44.0474 141.307 45.1691 139.044 45.9737C136.918 46.6045 134.707 46.9017 132.49 46.8549C129.382 46.8549 126.848 46.3253 124.888 45.2663C122.921 44.1924 121.331 42.54 120.335 40.5327C119.227 38.2934 118.673 35.8208 118.72 33.323C118.657 30.7273 119.266 28.1594 120.489 25.8689C121.663 23.7586 123.476 22.0745 125.666 21.0581C127.441 20.2006 129.827 19.7719 132.825 19.7719C135.719 19.7719 137.882 20.0334 139.314 20.5565C140.696 21.0478 141.928 21.8873 142.89 22.994C143.893 24.22 144.619 25.6482 145.019 27.1809L137.23 28.5701C136.957 27.6508 136.382 26.8507 135.597 26.2998C134.718 25.748 133.694 25.4745 132.657 25.5152C131.857 25.4832 131.061 25.6326 130.327 25.9523C129.593 26.2719 128.94 26.7535 128.419 27.361C127.364 28.5959 126.843 30.5768 126.843 33.2137C126.843 36.0435 127.371 38.0694 128.438 39.285C129.001 39.8985 129.692 40.3798 130.463 40.6945C131.233 41.0091 132.064 41.1494 132.895 41.1051C133.768 41.1053 134.635 40.973 135.468 40.7128C136.456 40.3702 137.403 39.9194 138.291 39.3686V36.9311H132.895Z" fill="#272C5E"/>
<path d="M150.176 20.2341H171.843V25.8231H158.279V29.9778H170.866V35.316H158.279V40.4805H172.242V46.4039H150.176V20.2341Z" fill="#272C5E"/>
<path d="M176.509 20.2341H187.146L191.25 36.1585L195.321 20.2341H205.952V46.4039H199.328V26.447L194.221 46.4039H188.227L183.133 26.447V46.4039H176.509V20.2341Z" fill="#272C5E"/>
<path d="M219.534 20.2341H211.431V46.4039H219.534V20.2341Z" fill="#272C5E"/>
<path d="M225.444 20.2087H237.458C239.419 20.1361 241.373 20.4644 243.202 21.1734C244.617 21.7815 245.859 22.7318 246.816 23.939C247.787 25.18 248.492 26.6074 248.887 28.1323C249.325 29.788 249.541 31.4943 249.53 33.2068C249.53 35.998 249.209 38.1719 248.572 39.7154C247.982 41.1802 247.077 42.4975 245.922 43.5743C244.898 44.5556 243.648 45.2691 242.282 45.6517C240.712 46.0981 239.09 46.3381 237.458 46.3656H225.444V20.2087ZM233.535 26.1321V40.4358H235.516C236.744 40.5182 237.974 40.3249 239.118 39.8698C239.888 39.431 240.482 38.7373 240.796 37.9082C241.294 36.4463 241.512 34.9038 241.439 33.3611C241.439 30.5892 240.983 28.6919 240.082 27.6693C239.182 26.6467 237.677 26.1321 235.58 26.1321H233.535Z" fill="#272C5E"/>
<path d="M62.5656 16.947L71.3896 9.99455L76.4897 9.05555L65.7684 0L65.4276 3.60808L43.3354 19.0437H1.2863L0 19.6032C0.711616 24.4101 2.54955 28.9807 5.36386 32.9421C7.13908 35.4216 9.27928 37.6181 11.7118 39.4572V41.779C11.2641 42.0729 10.9225 42.5026 10.7373 43.0051C10.5521 43.5075 10.5329 44.0561 10.6827 44.5703C10.8276 44.9551 11.0627 45.2996 11.3682 45.5749C11.6737 45.8502 12.0407 46.0482 12.4385 46.1524L58.4623 46.0688L60.0058 43.1939L58.5266 40.7885C58.3743 40.5147 58.322 40.1963 58.3787 39.8881C58.4277 39.6224 58.5528 39.3767 58.7388 39.1807C61.7717 36.9611 64.3211 34.1475 66.2317 30.9112C68.1423 27.6748 69.3743 24.0834 69.8524 20.3557C69.7881 19.243 69.4601 18.4262 69.1193 18.4262C68.7784 18.4262 62.6878 18.8571 62.6878 18.8571C62.4765 18.8158 62.2847 18.7059 62.1423 18.5445C61.9999 18.383 61.9147 18.1791 61.9001 17.9643C61.8854 17.7495 61.9421 17.5359 62.0612 17.3566C62.1804 17.1773 62.3554 17.0424 62.5591 16.9727L62.5656 16.947ZM39.1228 21.404L28.5301 28.9224C27.9145 29.2545 27.4077 29.7569 27.0702 30.3695C26.6827 31.0915 26.5469 31.9221 26.6843 32.7299L28.3372 35.0259C28.2739 35.3104 28.1421 35.5751 27.9531 35.7969C27.7642 36.0188 27.5239 36.1911 27.2532 36.2989C26.9825 36.4067 26.6895 36.4467 26.3998 36.4154C26.11 36.3841 25.8324 36.2824 25.5909 36.1193C19.9683 34.3658 15.2126 30.5585 12.2713 25.4559C11.1522 22.8833 11.1522 20.7416 12.1234 20.0791C12.4424 19.8767 12.8247 19.7989 13.1974 19.8605H39.1228C39.296 19.8943 39.4531 19.9846 39.5695 20.1173C39.6859 20.25 39.755 20.4175 39.7659 20.5937C39.7739 20.7834 39.7133 20.9698 39.5952 21.1185C39.4771 21.2673 39.3094 21.3687 39.1228 21.404ZM58.488 23.3978C57.5954 26.5473 55.9355 29.4262 53.657 31.7766C51.3784 34.127 48.5524 35.8755 45.4321 36.8653C45.1812 36.9361 43.3804 37.3927 42.1263 36.3122C41.8651 36.0803 41.6473 35.8037 41.4831 35.4954L56.7515 21.8156C56.9443 21.7456 57.1502 21.7185 57.3546 21.7362C57.559 21.754 57.757 21.8162 57.9349 21.9185C58.1735 22.0795 58.3553 22.3115 58.4546 22.5817C58.5539 22.8518 58.5656 23.1464 58.488 23.4235V23.3978Z" fill="#272C5E"/>
</svg>
