<svg width="88" height="95" viewBox="0 0 88 95" fill="none" xmlns="http://www.w3.org/2000/svg">
<path d="M87.3546 35.6584C87.3614 37.8575 87.0294 40.0444 86.3702 42.1423C85.8096 44.098 84.7716 45.8835 83.3496 47.3384C81.9277 48.7933 80.1663 49.8719 78.2241 50.4771C72.365 52.493 66.5236 52.4518 60.8472 49.6224C56.4794 47.4533 54.2336 43.8282 53.5262 39.1244C53.1298 36.1565 53.2857 33.1409 53.986 30.2296C55.0824 25.3195 58.1652 22.1837 62.8572 20.5981C68.0523 18.7937 73.7297 18.9636 78.8076 21.0755C83.6588 23.0325 86.2995 26.7047 87.0599 31.8388C87.2279 33.1058 87.3282 34.3808 87.3605 35.6584M75.4183 35.5641C75.4183 34.1789 75.4831 32.7996 75.4183 31.438C75.2886 29.0448 74.2099 27.7657 72.0702 27.3649C71.4902 27.2353 70.8958 27.1818 70.3019 27.2058C67.8144 27.359 65.9282 27.9249 65.4802 30.8014C65.0054 33.9785 65.0054 37.2086 65.4802 40.3858C65.5193 41.0299 65.7338 41.6511 66.1006 42.182C66.4673 42.7129 66.9724 43.1334 67.561 43.3979C68.4674 43.7866 69.4397 43.9987 70.4257 44.0227C73.5557 44.1052 75.1884 42.6139 75.4065 39.4898C75.5332 38.1824 75.5332 36.8657 75.4065 35.5582L75.4183 35.5641Z" fill="#1056A0"/>
<path d="M22.6155 45.3902C22.6155 43.7161 22.6155 42.0421 22.6155 40.3681C22.6155 39.867 22.7511 39.6666 23.2757 39.6666C24.9498 39.6666 26.6238 39.6666 28.2978 39.6018C28.4749 39.5872 28.6524 39.6239 28.8092 39.7076C28.966 39.7912 29.0954 39.9182 29.182 40.0734C31.3806 43.2976 34.6108 44.4412 38.3361 44.5178C39.2892 44.5629 40.244 44.4716 41.1713 44.2466C41.8138 44.0698 42.6744 44.0462 42.7039 43.1503C42.7333 42.2543 41.9494 42.1482 41.3363 41.9714C38.9314 41.2169 36.5088 40.5095 34.1039 39.755C31.6989 39.0006 29.1996 38.3404 26.9421 37.0731C20.4935 33.3772 21.5427 24.8951 25.6865 21.9891C27.9104 20.4486 30.5281 19.5753 33.2315 19.4722C36.9627 19.2777 40.5583 19.8377 43.8415 21.7534C44.5665 22.1778 44.7964 21.942 44.6962 21.217C44.596 20.4919 44.9084 20.2031 45.6688 20.2267C47.3428 20.2739 49.0227 20.2267 50.6909 20.2267C51.1742 20.2267 51.3982 20.3446 51.3982 20.881C51.3982 23.9697 51.3982 27.0584 51.4689 30.153C51.4689 30.8308 51.2096 30.9723 50.6142 30.9664C48.9402 30.9664 47.2662 30.9664 45.5922 31.0077C45.3914 31.0292 45.1884 30.9987 45.0027 30.9192C44.8256 30.836 44.6732 30.708 44.5606 30.5479C42.6273 27.972 39.845 27.0407 36.8094 26.5809C35.9017 26.4338 34.9806 26.3864 34.0626 26.4394C33.2197 26.4925 32.2058 26.6811 32.0879 27.7068C31.97 28.7324 33.0016 29.0389 33.7914 29.2865C35.8604 29.9172 37.947 30.4654 40.0219 31.0902C41.6252 31.55 43.2403 31.9685 44.8259 32.4931C48.3626 33.672 51.015 35.8883 52.1232 39.5016C53.697 44.6475 50.5789 49.7285 45.0499 51.1903C40.3032 52.4742 35.2459 51.9053 30.9031 49.5988C30.6732 49.4809 30.4257 49.3748 30.2076 49.2393C29.736 48.9445 29.6182 49.1214 29.5533 49.6106C29.3765 51.2434 29.3588 51.2139 27.6494 51.1726C26.3703 51.1373 25.0853 51.1255 23.8121 51.208C22.9044 51.2669 22.5271 51.0606 22.5861 50.0586C22.6804 48.5201 22.5861 46.9699 22.5861 45.4255L22.6155 45.3902Z" fill="#1056A0"/>
<path d="M10.4907 51.1607C7.43733 51.1607 4.37808 51.1607 1.33064 51.1607C0.741192 51.1607 0.458252 51.0428 0.440568 50.3709C0.381624 48.3667 0.352151 46.3685 0.440568 44.3644C0.440568 43.8044 0.652786 43.6394 1.19508 43.6571C2.21482 43.6866 3.23456 43.6276 4.24841 43.6571C4.83785 43.6571 5.06184 43.4979 5.05594 42.8731C5.05594 37.9807 5.05594 33.0863 5.05594 28.19C5.05594 27.6005 4.7966 27.4886 4.29557 27.4768C3.28172 27.4768 2.26196 27.3883 1.24811 27.3825C0.735289 27.3825 0.48184 27.2764 0.487734 26.681C0.523101 24.6121 0.487734 22.5549 0.487734 20.4741C0.487734 19.9967 0.582061 19.7668 1.13025 19.755C7.43732 19.6135 13.7385 19.8081 20.0456 19.755C20.5348 19.755 20.635 19.9613 20.635 20.3975C20.7293 22.5018 20.7057 24.6003 20.6704 26.7105C20.6704 27.2999 20.4287 27.4355 19.91 27.4296C18.8608 27.4296 17.8174 27.4709 16.7564 27.4709C16.2377 27.4709 16.0255 27.6418 16.0255 28.2136C16.0255 33.0785 16.0079 37.9375 15.9725 42.7906C15.9725 43.4626 16.2318 43.6512 16.839 43.6394C17.8528 43.6394 18.8726 43.6807 19.8923 43.6394C20.411 43.6394 20.6586 43.7573 20.6527 44.3467C20.6527 46.3449 20.6115 48.3491 20.6527 50.3532C20.6527 51.0487 20.3933 51.1489 19.7921 51.143C16.6975 51.1136 13.5735 51.143 10.4553 51.143" fill="#1056A0"/>
<path d="M54.1628 16.1535C53.2787 16.4836 52.7423 16.2419 52.4711 15.4344C52.4181 15.2811 52.2943 15.1515 52.2412 14.9982C51.9406 14.0551 51.4101 13.8193 50.4022 14.0787C48.3541 14.5448 46.2654 14.8093 44.1658 14.8685C43.5764 14.8685 43.2109 15.0041 43.3052 15.6938C43.376 16.1889 43.0813 16.2832 42.651 16.2832C42.2207 16.2832 41.9495 16.1771 41.9908 15.6938C42.0438 15.0454 41.7314 14.9039 41.1125 14.8626C38.7504 14.7619 36.4005 14.4682 34.0863 13.9844C33.9969 13.9472 33.9007 13.9291 33.804 13.9312C33.7072 13.9334 33.6119 13.9557 33.5243 13.9967C33.4366 14.0378 33.3585 14.0967 33.2949 14.1697C33.2313 14.2427 33.1836 14.3281 33.1549 14.4206C32.9545 14.9039 32.6893 15.3637 32.4948 15.847C32.2295 16.4954 31.646 16.4011 31.251 16.2419C30.8561 16.0828 31.2511 15.6525 31.3336 15.4167C32.0586 13.5364 32.0704 13.56 30.1547 12.9351C28.9758 12.5402 27.7969 12.1453 26.618 11.6737C26.4194 11.5677 26.1884 11.5397 25.9702 11.5953C25.7521 11.6509 25.5626 11.7861 25.4391 11.9743C24.4261 13.0894 23.4887 14.2709 22.6333 15.511C22.0439 16.3657 22.0439 16.3598 20.8296 16.2537C21.3619 15.173 22.0187 14.1581 22.7866 13.2299C23.2438 12.5882 23.7337 11.9704 24.2543 11.379C24.5844 11.0018 24.6433 10.7896 24.1305 10.5007C23.2051 10.0056 22.2914 9.48689 21.4014 8.92102C20.9416 8.63219 20.6705 8.92102 20.364 9.13911C18.0414 10.9208 15.9971 13.0385 14.2986 15.4226C13.7975 16.1182 13.2906 16.5013 12.4241 16.1889C12.3593 15.8942 12.595 15.7232 12.7424 15.5169C19.0298 6.69487 27.5493 1.61385 38.3008 0.27384C44.7975 -0.528761 51.3902 0.440697 57.3807 3.07953C63.3713 5.71836 68.5366 9.92832 72.3296 15.2635C72.53 15.5228 73.1194 15.8824 72.6832 16.1889C72.4518 16.3226 72.1783 16.3635 71.9179 16.3033C71.6575 16.2431 71.4296 16.0864 71.2803 15.8647C70.6909 15.1102 70.1014 14.3557 69.512 13.6248C68.0977 11.9404 66.5179 10.4021 64.7964 9.03301C64.6425 8.86869 64.433 8.76744 64.2086 8.74892C63.9842 8.73041 63.761 8.79594 63.5822 8.9328C62.7746 9.43383 61.9553 9.91718 61.1124 10.3534C60.4935 10.6717 60.5819 10.9428 60.9827 11.3731C62.1243 12.6055 63.154 13.937 64.0596 15.3519C64.2247 15.6112 64.7257 15.9413 64.3072 16.2125C64.0956 16.3475 63.8403 16.396 63.594 16.348C63.3555 16.2937 63.1455 16.153 63.0045 15.9531C62.309 14.9982 61.6075 14.0492 60.8766 13.1179C59.4325 11.2729 59.4325 11.2906 57.2574 12.1217C56.1655 12.5738 55.0451 12.9538 53.9035 13.2593C53.0723 13.4598 53.0959 13.7898 53.4142 14.4029C53.7325 15.0159 53.927 15.5818 54.1864 16.1712M41.9495 9.77571V7.90717C41.9495 5.85 41.9495 5.85589 39.8805 5.64369C39.3618 5.59064 38.9197 5.48454 38.5012 6.02683C36.9998 7.93569 35.6479 9.9576 34.4576 12.0746C34.2219 12.499 34.2454 12.664 34.7642 12.7996C36.9137 13.2725 39.1062 13.5234 41.307 13.5482C41.8434 13.5482 41.9613 13.3124 41.9495 12.8349C41.92 11.8211 41.9495 10.7955 41.9495 9.77571ZM43.3406 9.71677C43.3406 10.7719 43.3406 11.8211 43.3406 12.8762C43.3406 13.3949 43.5233 13.56 44.0243 13.5482C46.1596 13.4978 48.2844 13.2331 50.3668 12.7583C50.8855 12.6404 50.9562 12.4872 50.6969 12.0451C49.4833 9.86546 48.0726 7.80163 46.4824 5.87947C46.1817 5.50812 43.6412 5.68495 43.4231 6.07988C43.3467 6.29513 43.3225 6.52542 43.3524 6.75185C43.3524 7.74802 43.3524 8.73239 43.3524 9.69908M58.0886 10.318C58.0355 9.97023 57.7879 9.83466 57.6052 9.65783C55.6554 7.85973 53.5374 6.253 51.2804 4.85973C50.8341 4.54353 50.3007 4.3737 49.7538 4.3737C49.2068 4.3737 48.6734 4.54353 48.2271 4.85973C47.8616 5.07193 47.7438 5.21929 48.0267 5.59064C49.5159 7.57958 50.8934 9.64977 52.1528 11.7916C52.2286 11.9537 52.3645 12.08 52.5317 12.1438C52.6988 12.2076 52.8842 12.2039 53.0488 12.1335C54.7791 11.6848 56.4642 11.077 58.0827 10.318M35.442 4.22902C35.2887 4.29976 35.165 4.34691 35.0471 4.40586C32.2667 5.90853 29.6996 7.77591 27.4137 9.95844C26.9245 10.4241 27.343 10.5479 27.679 10.6717C29.1326 11.2695 30.623 11.7735 32.1411 12.1807C32.2197 12.2201 32.3054 12.2431 32.3932 12.2483C32.4809 12.2536 32.5688 12.2409 32.6515 12.2112C32.7342 12.1814 32.81 12.1351 32.8742 12.0752C32.9385 12.0152 32.9899 11.9428 33.0253 11.8624C34.259 9.66313 35.6374 7.54827 37.1514 5.5317C37.287 5.36666 37.5051 5.11909 37.1514 4.94226C36.562 4.65932 35.9725 4.43533 35.3831 4.19366M34.8408 2.08933C38.737 5.45507 46.6297 5.22518 50.2194 2.08933C45.158 0.936904 39.9022 0.936904 34.8408 2.08933ZM32.7306 2.63752C31.8641 2.67878 31.1332 3.15033 30.3374 3.42737C27.7203 4.36747 25.2327 5.63504 22.934 7.19984C22.1913 7.68908 22.2973 7.9779 22.987 8.34336C23.6766 8.70881 24.2543 9.01533 24.8732 9.38079C25.0914 9.54556 25.366 9.61701 25.6368 9.57943C25.9076 9.54186 26.1524 9.39832 26.3174 9.18037C28.4001 7.19206 30.6747 5.41504 33.1078 3.87535C33.3613 3.7103 33.8741 3.6042 33.7503 3.2859C33.6595 3.09637 33.5135 2.9387 33.3316 2.83352C33.1496 2.72834 32.9401 2.68057 32.7306 2.69646M62.7923 7.75981C62.6921 7.47098 62.4328 7.36487 62.2029 7.2293C59.7404 5.54509 57.0565 4.21009 54.2277 3.26233C53.6677 3.07371 53.1018 2.90866 52.5418 2.72593C52.4339 2.67906 52.3177 2.65392 52.2 2.65195C52.0823 2.64999 51.9654 2.67124 51.8559 2.71448C51.7464 2.75773 51.6466 2.82212 51.562 2.90399C51.4774 2.98586 51.4098 3.08359 51.363 3.1916C51.1743 3.62189 51.7343 3.71621 51.9996 3.88125C53.8323 5.03115 55.5868 6.30124 57.2515 7.68318C58.0296 8.31978 58.6309 9.52225 59.5622 9.51047C60.4935 9.49868 61.3305 8.64987 62.2442 8.17242C62.3624 8.11913 62.475 8.05395 62.5801 7.9779C62.6503 7.9135 62.7117 7.84018 62.7629 7.75981" fill="#1056A0"/>
<path d="M64.6671 54.6148C63.7673 56.1774 62.7276 57.6551 61.5607 59.0297C60.7532 60.0436 60.7414 60.0318 61.8319 60.6507C62.5593 61.0237 63.2675 61.4329 63.9539 61.8767C64.4431 62.2245 64.7319 62.1008 65.1328 61.7648C67.4225 59.897 69.4594 57.7391 71.1923 55.3457C71.3659 55.0061 71.6635 54.7463 72.0234 54.6201C72.3833 54.4939 72.778 54.511 73.1257 54.6678C70.0341 59.4082 65.8651 63.35 60.959 66.1713C56.053 68.9926 50.5492 70.6134 44.8971 70.9012C29.3534 71.7618 17.3817 62.8788 12.4775 54.6089C13.3146 54.3495 13.8627 54.6501 14.3579 55.3752C16.0603 57.754 18.0768 59.8915 20.3525 61.7294C20.5284 61.9404 20.78 62.0741 21.0533 62.1017C21.3267 62.1292 21.5999 62.0485 21.8144 61.8767C22.6084 61.3557 23.431 60.8795 24.2782 60.4503C24.7793 60.185 24.7439 59.9846 24.4079 59.5838C23.3446 58.3359 22.3603 57.0228 21.4607 55.6522C21.2662 55.328 21.0717 54.992 20.8713 54.6325C21.0375 54.5533 21.218 54.5085 21.4019 54.5007C21.5859 54.493 21.7695 54.5225 21.9418 54.5874C22.1141 54.6524 22.2715 54.7515 22.4046 54.8787C22.5376 55.006 22.6436 55.1588 22.7162 55.328C23.5796 56.6778 24.5663 57.9446 25.6635 59.1123C25.7635 59.2597 25.9147 59.3647 26.0878 59.407C26.2603 59.4498 26.4424 59.4289 26.6007 59.348C28.3218 58.7114 30.0489 58.0866 31.7819 57.5148C32.277 57.3498 32.336 57.1612 32.1297 56.7427C31.8969 56.3054 31.6997 55.8501 31.5402 55.3811C31.4636 55.1217 30.998 54.7916 31.4518 54.5735C31.5507 54.5157 31.6602 54.4785 31.7739 54.4641C31.8875 54.4497 32.0028 54.4585 32.113 54.4899C32.2231 54.5213 32.3258 54.5747 32.4147 54.6468C32.5037 54.7189 32.5772 54.8083 32.6307 54.9095C32.8724 55.4105 33.1671 55.888 33.3852 56.4008C33.4145 56.4935 33.4628 56.579 33.527 56.652C33.5912 56.725 33.6698 56.7839 33.7579 56.8249C33.846 56.8659 33.9417 56.8882 34.0389 56.8903C34.1361 56.8923 34.2326 56.8742 34.3224 56.837C36.6254 56.3652 38.96 56.0637 41.3074 55.9351C41.8968 55.8939 42.2505 55.7465 42.1444 55.0804C42.0854 54.6855 42.1856 54.491 42.6572 54.491C43.1287 54.491 43.4883 54.544 43.4235 55.0804C43.341 55.7701 43.6946 55.8644 44.2723 55.9175C46.631 56.0563 48.9769 56.3616 51.2926 56.8311C51.3918 56.8674 51.4975 56.8826 51.603 56.8758C51.7084 56.869 51.8113 56.8402 51.9051 56.7914C51.9988 56.7426 52.0813 56.6748 52.1474 56.5923C52.2135 56.5099 52.2616 56.4145 52.2887 56.3124C52.4833 55.8349 52.7721 55.3811 52.9843 54.9036C53.0352 54.7999 53.1068 54.7076 53.1946 54.6325C53.2824 54.5574 53.3846 54.501 53.495 54.4668C53.6054 54.4326 53.7215 54.4212 53.8364 54.4335C53.9513 54.4458 54.0625 54.4814 54.1632 54.5382C54.623 54.7091 54.1632 55.0981 54.116 55.3634C53.9451 56.0059 53.1788 56.6543 53.5266 57.2024C53.7977 57.6268 54.7055 57.6445 55.2949 57.8685C56.4738 58.3047 57.6999 58.7291 58.8788 59.2184C59.0595 59.3218 59.2727 59.3525 59.4753 59.3043C59.6778 59.2562 59.8545 59.1327 59.9692 58.959C60.9778 57.7918 61.9185 56.5676 62.7868 55.2926C63.3762 54.4203 63.3762 54.4203 64.6612 54.6089M43.4883 61.0928H43.447C43.447 61.7117 43.447 62.3365 43.447 62.9613C43.5826 65.1777 43.7182 65.2838 45.9876 65.3545C46.1642 65.3735 46.3427 65.3472 46.5063 65.2779C46.6663 65.2019 46.8058 65.0887 46.913 64.9478C48.4214 63.0045 49.7828 60.9514 50.9861 58.8057C51.269 58.2929 51.1334 58.1515 50.5911 58.0395C48.4688 57.6044 46.3137 57.3481 44.1485 57.2732C43.6357 57.2732 43.453 57.4323 43.4647 57.9452C43.5001 58.9944 43.4647 60.0436 43.4647 61.0928M42.1031 61.1399C42.1031 60.0907 42.1031 59.0356 42.1031 57.9864C42.1031 57.5325 42.0383 57.2496 41.4665 57.2673C39.27 57.34 37.0833 57.5963 34.9295 58.0336C34.5051 58.122 34.3401 58.2576 34.6053 58.682C35.8258 60.9322 37.2567 63.0617 38.8788 65.0421C39.1559 65.3722 41.8261 65.2189 42.0206 64.8535C42.0982 64.6405 42.1263 64.4128 42.1031 64.1874C42.1031 63.1794 42.1031 62.1597 42.1031 61.1399ZM37.5703 65.72C37.4583 65.5372 37.3639 65.3722 37.2461 65.213C35.8006 63.2291 34.4721 61.1625 33.2673 59.0238C32.9785 58.4874 32.6189 58.57 32.2063 58.682C30.7321 59.1118 29.2836 59.6254 27.868 60.2204C27.143 60.5269 27.2785 60.745 27.7442 61.2048C29.7933 63.19 32.1012 64.8892 34.6053 66.2564C35.0496 66.4706 35.5454 66.555 36.0356 66.4998C36.5258 66.4445 36.9903 66.2518 37.3758 65.9439C37.4467 65.8731 37.5136 65.7983 37.5761 65.72H37.5703ZM58.3011 60.521C56.6454 59.6792 54.891 59.0475 53.0786 58.6407C52.666 58.5464 52.4892 58.7409 52.3064 59.0592C51.1164 61.2474 49.7647 63.3438 48.2628 65.3309C48.0035 65.6787 48.0388 65.8496 48.4396 66.0618C48.8512 66.3403 49.3368 66.4892 49.8337 66.4892C50.3306 66.4892 50.8162 66.3403 51.2277 66.0618C53.8302 64.5435 56.2105 62.673 58.3011 60.5033M34.9649 68.7556C40.1079 69.961 45.46 69.961 50.6029 68.7556C46.9837 65.5549 38.979 65.5372 34.9649 68.7556ZM63.1876 63.0556C62.3204 62.4352 61.4037 61.8872 60.4467 61.417C60.2301 61.2729 59.9666 61.2171 59.7102 61.261C59.4538 61.3048 59.2238 61.445 59.0674 61.6528C56.9764 63.699 54.6609 65.5023 52.1649 67.0285C51.941 67.17 51.381 67.2171 51.6404 67.6533C51.7282 67.851 51.8801 68.0132 52.0716 68.1137C52.2631 68.2143 52.4829 68.2473 52.6955 68.2074C52.853 68.1684 53.0085 68.1212 53.1611 68.0659C54.1219 67.73 55.0945 67.4293 56.0317 67.0462C58.6073 66.0904 61.0208 64.7445 63.1876 63.0556ZM22.3743 63.1323C23.6015 64.0693 24.9093 64.8958 26.2824 65.6021C28.3363 66.683 30.4975 67.5463 32.7309 68.1779C32.9485 68.2542 33.187 68.2436 33.397 68.1485C33.6105 68.058 33.7814 67.8893 33.8744 67.6769C34.0925 67.2702 33.5385 67.223 33.285 67.0875C31.4636 65.8673 29.6894 64.5823 27.98 63.2089C27.1606 62.5546 26.5712 61.2519 25.5102 61.3639C24.4492 61.4759 23.6239 62.3306 22.6926 62.867C22.5685 62.9533 22.4504 63.0478 22.339 63.15L22.3743 63.1323Z" fill="#1056A0"/>
<path d="M22.9536 75.7762V89.0621H19.2824V80.3563C18.6883 80.8078 18.1121 81.1731 17.5537 81.4523C17.0012 81.7315 16.3062 81.9989 15.4686 82.2543V79.2781C16.7042 78.8801 17.6636 78.4019 18.3467 77.8435C19.0299 77.2851 19.5646 76.596 19.9507 75.7762H22.9536ZM30.4208 79.7771L26.9902 79.1623C27.2753 78.0692 27.8219 77.2316 28.6298 76.6494C29.4436 76.0673 30.5931 75.7762 32.0782 75.7762C33.7832 75.7762 35.0158 76.094 35.7762 76.7296C36.5366 77.3653 36.9168 78.1643 36.9168 79.1266C36.9168 79.691 36.7623 80.2019 36.4534 80.6593C36.1445 81.1167 35.6782 81.5177 35.0544 81.8622C35.5594 81.987 35.9455 82.1325 36.2128 82.2989C36.6465 82.5662 36.9821 82.9196 37.2198 83.3592C37.4633 83.7929 37.5851 84.3127 37.5851 84.9186C37.5851 85.679 37.3861 86.4097 36.9881 87.1107C36.5901 87.8057 36.0168 88.3433 35.2683 88.7235C34.5198 89.0978 33.5366 89.2849 32.3188 89.2849C31.1307 89.2849 30.1921 89.1453 29.503 88.8661C28.8199 88.5869 28.2555 88.18 27.81 87.6453C27.3704 87.1047 27.0318 86.4275 26.7942 85.6137L30.4208 85.1325C30.5634 85.8632 30.7832 86.3711 31.0802 86.6562C31.3832 86.9354 31.7664 87.075 32.2297 87.075C32.7169 87.075 33.1208 86.8968 33.4416 86.5404C33.7683 86.184 33.9317 85.7087 33.9317 85.1147C33.9317 84.5087 33.7743 84.0394 33.4594 83.7068C33.1505 83.3741 32.7287 83.2078 32.1941 83.2078C31.9089 83.2078 31.5169 83.279 31.0179 83.4216L31.205 80.8286C31.407 80.8583 31.5644 80.8731 31.6773 80.8731C32.1525 80.8731 32.5475 80.7217 32.8624 80.4187C33.1832 80.1157 33.3436 79.7563 33.3436 79.3405C33.3436 78.9425 33.2248 78.6246 32.9871 78.387C32.7495 78.1494 32.4228 78.0306 32.007 78.0306C31.5792 78.0306 31.2317 78.1613 30.9644 78.4227C30.6971 78.6781 30.5159 79.1296 30.4208 79.7771ZM45.3107 86.6206H38.699V83.6355L45.3107 75.7762H48.4741V83.8048H50.1137V86.6206H48.4741V89.0621H45.3107V86.6206ZM45.3107 83.8048V79.6969L41.8177 83.8048H45.3107ZM53.4285 82.0404C52.8582 81.7375 52.4423 81.3989 52.181 81.0246C51.8245 80.5137 51.6463 79.9256 51.6463 79.2603C51.6463 78.1672 52.1602 77.2732 53.1879 76.5781C53.9898 76.0435 55.0502 75.7762 56.369 75.7762C58.1155 75.7762 59.4046 76.1088 60.2363 76.7742C61.0739 77.4395 61.4927 78.2771 61.4927 79.287C61.4927 79.8751 61.3264 80.4246 60.9937 80.9355C60.7442 81.3157 60.3521 81.684 59.8175 82.0404C60.5244 82.3791 61.0501 82.8276 61.3947 83.386C61.7452 83.9444 61.9204 84.5622 61.9204 85.2394C61.9204 85.8929 61.7689 86.5047 61.466 87.075C61.1689 87.6394 60.8006 88.076 60.361 88.3849C59.9274 88.6938 59.3838 88.9196 58.7304 89.0621C58.0829 89.2106 57.3908 89.2849 56.6542 89.2849C55.27 89.2849 54.2126 89.1215 53.4819 88.7948C52.7512 88.4681 52.1958 87.9869 51.8156 87.3513C51.4354 86.7156 51.2453 86.0057 51.2453 85.2216C51.2453 84.4553 51.4235 83.8077 51.78 83.279C52.1364 82.7444 52.6859 82.3315 53.4285 82.0404ZM55.0591 79.4741C55.0591 79.9256 55.1987 80.291 55.4779 80.5702C55.7631 80.8434 56.1403 80.9801 56.6096 80.9801C57.0254 80.9801 57.367 80.8434 57.6343 80.5702C57.9017 80.2969 58.0353 79.9434 58.0353 79.5098C58.0353 79.0583 57.8957 78.693 57.6165 78.4138C57.3373 78.1286 56.9809 77.986 56.5472 77.986C56.1076 77.986 55.7482 78.1256 55.469 78.4049C55.1958 78.6781 55.0591 79.0345 55.0591 79.4741ZM54.8631 85.0968C54.8631 85.6731 55.0383 86.1453 55.3888 86.5137C55.7393 86.876 56.1403 87.0572 56.5918 87.0572C57.0254 87.0572 57.4145 86.8731 57.7591 86.5047C58.1036 86.1305 58.2759 85.6582 58.2759 85.0879C58.2759 84.5117 58.1007 84.0394 57.7502 83.6711C57.4056 83.3028 57.0046 83.1186 56.5472 83.1186C56.0958 83.1186 55.7007 83.2969 55.3621 83.6533C55.0294 84.0097 54.8631 84.4909 54.8631 85.0968ZM64.8877 75.9989H73.5044V78.8949H67.6679L67.356 80.8553C67.76 80.6652 68.158 80.5226 68.55 80.4276C68.9481 80.3325 69.3401 80.285 69.7263 80.285C71.0332 80.285 72.0936 80.6801 72.9074 81.4702C73.7213 82.2602 74.1282 83.2553 74.1282 84.4553C74.1282 85.2988 73.9173 86.1097 73.4955 86.8879C73.0797 87.6661 72.4856 88.2602 71.7134 88.6701C70.947 89.08 69.9639 89.2849 68.7639 89.2849C67.9025 89.2849 67.1629 89.2047 66.5451 89.0443C65.9332 88.878 65.4105 88.6344 64.9768 88.3136C64.5491 87.9869 64.2016 87.6186 63.9343 87.2087C63.6669 86.7988 63.4442 86.2879 63.266 85.676L66.9372 85.2751C67.0263 85.8632 67.2342 86.3117 67.5609 86.6206C67.8877 86.9235 68.2768 87.075 68.7283 87.075C69.2332 87.075 69.649 86.8849 69.9758 86.5047C70.3084 86.1186 70.4748 85.5453 70.4748 84.785C70.4748 84.0068 70.3084 83.4365 69.9758 83.0741C69.6431 82.7117 69.2005 82.5305 68.6481 82.5305C68.2976 82.5305 67.959 82.6167 67.6322 82.789C67.3887 82.9137 67.1213 83.1394 66.8303 83.4662L63.7382 83.0206L64.8877 75.9989Z" fill="#1056A0"/>
</svg>
