<svg width="252" height="57" viewBox="0 0 252 57" fill="none" xmlns="http://www.w3.org/2000/svg">
<path d="M206.354 52.0531C213.798 50.535 216.962 47.7898 222.18 42.3994C226.688 37.7362 228.906 31.7004 229.406 25.4101C229.861 19.647 228.697 13.7112 230.506 8.07531C231.524 4.89378 233.488 2.35765 236.442 0.603271C236.151 0.775983 235.115 0.712352 234.751 0.775983C227.534 2.06677 221.798 7.0754 219.125 13.5839C215.807 21.665 218.725 30.4005 216.344 38.5816C214.753 44.0538 210.226 50.7077 204.136 51.9531" fill="#70706F"/>
<path d="M204.127 51.9622C211.69 52.5076 219.362 50.6169 225.889 46.8354C231.534 43.5539 235.37 38.3271 237.633 32.4004C239.706 26.9645 240.269 20.9287 243.596 15.9928C245.478 13.2021 248.068 11.2841 251.395 10.3933C251.068 10.4842 250.095 10.1388 249.732 10.1024C242.451 9.4025 235.533 12.6931 231.134 18.2471C225.661 25.1465 225.979 34.3456 221.389 41.5995C218.317 46.4445 210.326 52.4167 204.136 51.9713" fill="#EF7D00"/>
<path d="M9.83545 13.1294L19.2164 39.6269L28.5519 13.1294H38.4328V49.6624H30.879V39.6724L31.6334 22.4376L21.7707 49.6624H16.5985L6.7721 22.4649L7.52658 39.6724V49.6624H0V16.4109C0 14.5929 1.47259 13.1294 3.28152 13.1294H9.83545Z" fill="#70706F"/>
<path d="M41.6416 35.8364C41.6416 33.1458 42.1597 30.746 43.196 28.6371C44.2323 26.5282 45.723 24.9011 47.6774 23.7466C49.6227 22.5922 51.8861 22.0195 54.4677 22.0195C58.131 22.0195 61.1216 23.1376 63.4396 25.3829C65.7576 27.6281 67.0483 30.6642 67.312 34.5184L67.3665 36.3728C67.3665 40.536 66.203 43.8811 63.8759 46.3991C61.5488 48.917 58.431 50.1715 54.5131 50.1715C50.5953 50.1715 47.4774 48.917 45.1413 46.4082C42.8051 43.8993 41.6416 40.4906 41.6416 36.1728V35.8455V35.8364ZM48.8864 36.3546C48.8864 38.9362 49.3682 40.9087 50.3408 42.2722C51.3134 43.6357 52.6951 44.3175 54.504 44.3175C56.313 44.3175 57.631 43.6448 58.6218 42.2904C59.6127 40.9451 60.1035 38.7816 60.1035 35.8183C60.1035 33.2912 59.6127 31.3278 58.6218 29.937C57.631 28.5462 56.2493 27.8554 54.4586 27.8554C52.6679 27.8554 51.3134 28.5462 50.3408 29.9279C49.3682 31.3096 48.8864 33.4458 48.8864 36.3455V36.3546Z" fill="#70706F"/>
<path d="M120.589 44.3175C121.925 44.3175 123.016 43.9539 123.852 43.2176C124.689 42.4813 125.125 41.4995 125.161 40.2815H131.961C131.942 42.1177 131.442 43.8084 130.452 45.3356C129.461 46.8627 128.115 48.0535 126.397 48.8989C124.679 49.7442 122.789 50.1624 120.716 50.1624C116.835 50.1624 113.771 48.9261 111.535 46.4627C109.29 43.9993 108.172 40.5905 108.172 36.2364V35.7637C108.172 31.5823 109.281 28.2462 111.508 25.7556C113.735 23.2649 116.789 22.0195 120.662 22.0195C124.061 22.0195 126.779 22.9831 128.825 24.9193C130.87 26.8554 131.915 29.4188 131.951 32.6367H125.152C125.116 31.2278 124.679 30.0733 123.843 29.1916C123.007 28.3099 121.907 27.8644 120.534 27.8644C118.844 27.8644 117.571 28.4826 116.707 29.7097C115.844 30.9369 115.417 32.9367 115.417 35.7001V36.4546C115.417 39.2543 115.844 41.2632 116.698 42.4813C117.553 43.7084 118.844 44.3175 120.589 44.3175Z" fill="#EF7D00"/>
<path d="M151.959 49.6624C151.623 49.0079 151.386 48.1989 151.232 47.2263C149.477 49.1807 147.196 50.1624 144.378 50.1624C141.714 50.1624 139.515 49.3897 137.769 47.8535C136.024 46.3173 135.151 44.372 135.151 42.0359C135.151 39.1634 136.215 36.9545 138.351 35.4092C140.487 33.873 143.569 33.0912 147.596 33.0731H150.932V31.5187C150.932 30.2642 150.614 29.2643 149.968 28.5098C149.323 27.7554 148.305 27.3827 146.923 27.3827C145.705 27.3827 144.741 27.6736 144.051 28.2644C143.36 28.8462 143.005 29.6552 143.005 30.6733H135.751C135.751 29.1007 136.233 27.6463 137.206 26.31C138.178 24.9738 139.551 23.9194 141.324 23.1649C143.096 22.4013 145.087 22.0195 147.296 22.0195C150.641 22.0195 153.295 22.8558 155.259 24.5375C157.222 26.2191 158.204 28.5826 158.204 31.6277V43.3994C158.222 45.9719 158.576 47.9262 159.286 49.2443V49.6715H151.959V49.6624ZM145.969 44.6174C147.041 44.6174 148.023 44.3811 148.932 43.8993C149.832 43.4266 150.505 42.7812 150.941 41.9813V37.3181H148.232C144.605 37.3181 142.669 38.5725 142.433 41.0814L142.405 41.5086C142.405 42.4086 142.723 43.1539 143.36 43.7448C143.996 44.3266 144.869 44.6265 145.969 44.6265V44.6174Z" fill="#EF7D00"/>
<path d="M177.747 29.3098C176.756 29.1735 175.893 29.1098 175.138 29.1098C172.393 29.1098 170.593 30.037 169.748 31.8914V49.6534H162.494V22.5105H166.966C168.303 22.5105 169.403 23.5467 169.484 24.883L169.539 25.7465C170.993 23.2558 173.011 22.0105 175.584 22.0105C176.384 22.0105 177.138 22.1196 177.838 22.3377L177.738 29.3098H177.747Z" fill="#EF7D00"/>
<path d="M193.328 50.1624C189.347 50.1624 186.111 48.9443 183.602 46.4991C181.102 44.0539 179.848 40.7996 179.848 36.7363V36.0364C179.848 33.3094 180.375 30.8733 181.429 28.7189C182.484 26.5736 183.975 24.9102 185.911 23.7466C187.847 22.5831 190.047 22.0013 192.519 22.0013C196.237 22.0013 199.155 23.174 201.291 25.5101C203.427 27.8553 204.964 31.0641 204.964 37.3181V38.4271H187.202C187.438 40.1997 188.12 41.645 189.32 42.6903C192.074 45.0992 196.219 43.5993 197.864 41.954C198.337 41.4814 198.991 41.2541 199.655 41.2541L204.736 41.2905C204.482 44.9356 199.382 50.1442 193.319 50.1442L193.328 50.1624ZM192.501 27.8553C191.065 27.8553 189.892 28.3462 189.001 29.3188C188.111 30.2915 187.538 31.6914 187.283 33.5003H197.373V32.9185C197.337 31.3096 196.901 30.0551 196.064 29.1734C195.228 28.2917 194.037 27.8463 192.501 27.8463V27.8553Z" fill="#EF7D00"/>
<path d="M93.773 49.6624H89.9188C88.1099 49.6624 86.6373 48.1989 86.6373 46.3808V32.8094C86.6373 30.5278 85.0011 28.5007 82.7467 28.2098C80.0106 27.8553 77.6745 29.9914 77.6745 32.6548V49.6624H70.5479V32.9457C70.5479 26.6554 75.4292 21.2922 81.7105 21.0559C88.3189 20.8014 93.773 26.11 93.773 32.6548V49.6624Z" fill="#70706F"/>
<path d="M97.6543 56.2891H101.054C103.217 56.2891 104.972 54.5347 104.972 52.3712V48.0898V17.6744H97.6543V56.2891Z" fill="#70706F"/>
<path d="M102.963 8.5116L99.3088 15.6382H82.8285C80.0378 15.6382 77.7744 13.3748 77.7744 10.5932V8.5116H102.963Z" fill="#EF7D00"/>
<path d="M127.288 8.5116V10.5932C127.288 13.3748 125.025 15.6382 122.243 15.6382H101.836L105.481 8.5116H127.288Z" fill="#70706F"/>
</svg>
